{
  "accessors": [
    {
      "bufferView": 2,
      "componentType": 5126,
      "count": 10672,
      "max": [
        0.996921718120575,
        8.992233276367188,
        0.996921718120575
      ],
      "min": [
        -0.996921718120575,
        -0.9967670440673828,
        -0.996921718120575
      ],
      "type": "VEC3"
    },
    {
      "bufferView": 2,
      "byteOffset": 128064,
      "componentType": 5126,
      "count": 10672,
      "max": [
        0.9999411106109619,
        0.9997183084487915,
        0.9999411106109619
      ],
      "min": [
        -0.9999411106109619,
        -0.9999558329582214,
        -0.9999411106109619
      ],
      "type": "VEC3"
    },
    {
      "bufferView": 1,
      "componentType": 5126,
      "count": 10672,
      "max": [
        1.0000001192092896,
        1.0000001192092896
      ],
      "min": [
        0.0,
        0.0
      ],
      "type": "VEC2"
    },
    {
      "bufferView": 0,
      "componentType": 5125,
      "count": 16008,
      "type": "SCALAR"
    },
    {
      "bufferView": 2,
      "byteOffset": 256128,
      "componentType": 5126,
      "count": 636,
      "max": [
        1.5288583040237427,
        1.189037799835205,
        1.5288587808609009
      ],
      "min": [
        -1.5288583040237427,
        -2.5597076416015625,
        -1.5288578271865845
      ],
      "type": "VEC3"
    },
    {
      "bufferView": 2,
      "byteOffset": 263760,
      "componentType": 5126,
      "count": 636,
      "max": [
        0.9951847791671753,
        0.420669287443161,
        0.9951847791671753
      ],
      "min": [
        -0.9951847791671753,
        -1.0,
        -0.9951847791671753
      ],
      "type": "VEC3"
    },
    {
      "bufferView": 1,
      "byteOffset": 85376,
      "componentType": 5126,
      "count": 636,
      "max": [
        0.9900000095367432,
        0.49000000953674316
      ],
      "min": [
        0.01000000536441803,
        0.01000000536441803
      ],
      "type": "VEC2"
    },
    {
      "bufferView": 0,
      "byteOffset": 64032,
      "componentType": 5125,
      "count": 954,
      "type": "SCALAR"
    },
    {
      "bufferView": 2,
      "byteOffset": 271392,
      "componentType": 5126,
      "count": 1984,
      "max": [
        0.9999997019767761,
        1.0,
        0.9999993443489075
      ],
      "min": [
        -0.9999990463256836,
        -1.0,
        -1.0
      ],
      "type": "VEC3"
    },
    {
      "bufferView": 2,
      "byteOffset": 295200,
      "componentType": 5126,
      "count": 1984,
      "max": [
        0.9904384613037109,
        0.9951385855674744,
        0.9904385805130005
      ],
      "min": [
        -0.99043869972229,
        -0.9951385259628296,
        -0.9904382824897766
      ],
      "type": "VEC3"
    },
    {
      "bufferView": 1,
      "byteOffset": 90464,
      "componentType": 5126,
      "count": 1984,
      "max": [
        1.0,
        1.0
      ],
      "min": [
        0.0,
        0.0
      ],
      "type": "VEC2"
    },
    {
      "bufferView": 0,
      "byteOffset": 67848,
      "componentType": 5125,
      "count": 2880,
      "type": "SCALAR"
    },
    {
      "bufferView": 2,
      "byteOffset": 319008,
      "componentType": 5126,
      "count": 780,
      "max": [
        0.8303266167640686,
        0.09000010788440704,
        1.814972996711731
      ],
      "min": [
        -2.0856289863586426,
        -0.09000008553266525,
        0.6293340921401978
      ],
      "type": "VEC3"
    },
    {
      "bufferView": 2,
      "byteOffset": 328368,
      "componentType": 5126,
      "count": 780,
      "max": [
        0.9992388486862183,
        1.0,
        1.0
      ],
      "min": [
        -0.9992012977600098,
        -1.0,
        -1.0
      ],
      "type": "VEC3"
    },
    {
      "bufferView": 1,
      "byteOffset": 106336,
      "componentType": 5126,
      "count": 780,
      "max": [
        1.0,
        1.0
      ],
      "min": [
        0.0,
        0.0
      ],
      "type": "VEC2"
    },
    {
      "bufferView": 0,
      "byteOffset": 79368,
      "componentType": 5125,
      "count": 4248,
      "type": "SCALAR"
    },
    {
      "bufferView": 2,
      "byteOffset": 337728,
      "componentType": 5126,
      "count": 624,
      "max": [
        1.999999761581421,
        0.08000002056360245,
        0.08000002056360245
      ],
      "min": [
        -2.0,
        -0.08000002056360245,
        -0.08000002056360245
      ],
      "type": "VEC3"
    },
    {
      "bufferView": 2,
      "byteOffset": 345216,
      "componentType": 5126,
      "count": 624,
      "max": [
        1.6541878267162247e-07,
        1.0,
        1.0
      ],
      "min": [
        -1.0640371073122878e-07,
        -1.0,
        -1.0
      ],
      "type": "VEC3"
    },
    {
      "bufferView": 1,
      "byteOffset": 112576,
      "componentType": 5126,
      "count": 624,
      "max": [
        1.0,
        1.0
      ],
      "min": [
        0.0,
        0.0
      ],
      "type": "VEC2"
    },
    {
      "bufferView": 0,
      "byteOffset": 96360,
      "componentType": 5125,
      "count": 3384,
      "type": "SCALAR"
    },
    {
      "bufferView": 2,
      "byteOffset": 352704,
      "componentType": 5126,
      "count": 624,
      "max": [
        1.999999761581421,
        0.08000002056360245,
        0.08000002056360245
      ],
      "min": [
        -2.0,
        -0.08000002056360245,
        -0.08000002056360245
      ],
      "type": "VEC3"
    },
    {
      "bufferView": 2,
      "byteOffset": 360192,
      "componentType": 5126,
      "count": 624,
      "max": [
        1.6541878267162247e-07,
        1.0,
        1.0
      ],
      "min": [
        -1.0640371073122878e-07,
        -1.0,
        -1.0
      ],
      "type": "VEC3"
    },
    {
      "bufferView": 1,
      "byteOffset": 117568,
      "componentType": 5126,
      "count": 624,
      "max": [
        1.0,
        1.0
      ],
      "min": [
        0.0,
        0.0
      ],
      "type": "VEC2"
    },
    {
      "bufferView": 0,
      "byteOffset": 109896,
      "componentType": 5125,
      "count": 3384,
      "type": "SCALAR"
    }
  ],
  "asset": {
    "extras": {
      "author": "cimon (https://sketchfab.com/aithmad2005)",
      "license": "CC-BY-4.0 (http://creativecommons.org/licenses/by/4.0/)",
      "source": "https://sketchfab.com/3d-models/ligh-pole-ec7769b4e00a4b82999b2769ffef05d7",
      "title": "Ligh Pole"
    },
    "generator": "Sketchfab-15.30.0",
    "version": "2.0"
  },
  "bufferViews": [
    {
      "buffer": 0,
      "byteLength": 123432,
      "name": "floatBufferViews",
      "target": 34963
    },
    {
      "buffer": 0,
      "byteLength": 122560,
      "byteOffset": 123432,
      "byteStride": 8,
      "name": "floatBufferViews",
      "target": 34962
    },
    {
      "buffer": 0,
      "byteLength": 367680,
      "byteOffset": 245992,
      "byteStride": 12,
      "name": "floatBufferViews",
      "target": 34962
    }
  ],
  "buffers": [
    {
      "byteLength": 613672,
      "uri": "scene.bin"
    }
  ],
  "extensionsUsed": [
    "KHR_materials_emissive_strength"
  ],
  "materials": [
    {
      "doubleSided": true,
      "name": "Material.003",
      "pbrMetallicRoughness": {
        "baseColorFactor": [
          0.0374048,
          0.016930999999999998,
          0.003329039999999999,
          1.0
        ],
        "metallicFactor": 0.9194658646476304,
        "roughnessFactor": 0.5988913951983773
      }
    },
    {
      "doubleSided": true,
      "emissiveFactor": [
        1.0,
        0.6376029999999998,
        0.1236169999999999
      ],
      "extensions": {
        "KHR_materials_emissive_strength": {
          "emissiveStrength": 1.442585112521639
        }
      },
      "name": "Material.004"
    }
  ],
  "meshes": [
    {
      "name": "Object_0",
      "primitives": [
        {
          "attributes": {
            "NORMAL": 1,
            "POSITION": 0,
            "TEXCOORD_0": 2
          },
          "indices": 3,
          "material": 0,
          "mode": 4
        }
      ]
    },
    {
      "name": "Object_1",
      "primitives": [
        {
          "attributes": {
            "NORMAL": 5,
            "POSITION": 4,
            "TEXCOORD_0": 6
          },
          "indices": 7,
          "material": 0,
          "mode": 4
        }
      ]
    },
    {
      "name": "Object_2",
      "primitives": [
        {
          "attributes": {
            "NORMAL": 9,
            "POSITION": 8,
            "TEXCOORD_0": 10
          },
          "indices": 11,
          "material": 1,
          "mode": 4
        }
      ]
    },
    {
      "name": "Object_3",
      "primitives": [
        {
          "attributes": {
            "NORMAL": 13,
            "POSITION": 12,
            "TEXCOORD_0": 14
          },
          "indices": 15,
          "material": 0,
          "mode": 4
        }
      ]
    },
    {
      "name": "Object_4",
      "primitives": [
        {
          "attributes": {
            "NORMAL": 17,
            "POSITION": 16,
            "TEXCOORD_0": 18
          },
          "indices": 19,
          "material": 0,
          "mode": 4
        }
      ]
    },
    {
      "name": "Object_5",
      "primitives": [
        {
          "attributes": {
            "NORMAL": 21,
            "POSITION": 20,
            "TEXCOORD_0": 22
          },
          "indices": 23,
          "material": 0,
          "mode": 4
        }
      ]
    }
  ],
  "nodes": [
    {
      "children": [
        1
      ],
      "matrix": [
        1.0,
        0.0,
        0.0,
        0.0,
        0.0,
        2.220446049250313e-16,
        -1.0,
        0.0,
        0.0,
        1.0,
        2.220446049250313e-16,
        0.0,
        0.0,
        0.0,
        0.0,
        1.0
      ],
      "name": "Sketchfab_model"
    },
    {
      "children": [
        2
      ],
      "name": "root"
    },
    {
      "children": [
        3,
        5,
        7,
        9,
        11,
        13
      ],
      "matrix": [
        1.0,
        0.0,
        0.0,
        0.0,
        0.0,
        2.220446049250313e-16,
        1.0,
        0.0,
        0.0,
        -1.0,
        2.220446049250313e-16,
        0.0,
        0.0,
        0.0,
        0.0,
        1.0
      ],
      "name": "GLTF_SceneRootNode"
    },
    {
      "children": [
        4
      ],
      "matrix": [
        0.31453564763069153,
        0.0,
        0.0,
        0.0,
        0.0,
        0.7540907859802246,
        0.0,
        0.0,
        0.0,
        0.0,
        0.1974124014377594,
        0.0,
        0.0,
        0.7518438696861267,
        0.0,
        1.0
      ],
      "name": "Cube_0"
    },
    {
      "mesh": 0,
      "name": "Object_4"
    },
    {
      "children": [
        6
      ],
      "matrix": [
        0.4324633479118347,
        0.0,
        0.0,
        0.0,
        0.0,
        0.21626420319080353,
        0.0,
        0.0,
        0.0,
        0.0,
        0.4324633479118347,
        0.0,
        -0.0016713663935661316,
        6.46621036529541,
        -1.4085201025009155,
        1.0
      ],
      "name": "Cone_5"
    },
    {
      "mesh": 1,
      "name": "Object_6"
    },
    {
      "children": [
        8
      ],
      "matrix": [
        0.3207603096961975,
        0.0,
        0.0,
        0.0,
        0.0,
        0.3207603096961975,
        0.0,
        0.0,
        0.0,
        0.0,
        0.3207603096961975,
        0.0,
        0.0,
        6.0649495124816895,
        -1.403609037399292,
        1.0
      ],
      "name": "Sphere_6"
    },
    {
      "mesh": 2,
      "name": "Object_8"
    },
    {
      "children": [
        10
      ],
      "matrix": [
        8.429369480200677e-08,
        -0.9999999999999966,
        -0.0,
        0.0,
        0.9999999999999966,
        8.429369480200677e-08,
        0.0,
        0.0,
        0.0,
        0.0,
        1.0,
        0.0,
        0.0,
        5.398764610290527,
        -2.1340019702911377,
        1.0
      ],
      "name": "NurbsPath.003_8"
    },
    {
      "mesh": 3,
      "name": "Object_10"
    },
    {
      "children": [
        12
      ],
      "matrix": [
        0.0,
        0.0,
        -0.12626589834690094,
        0.0,
        0.0,
        1.0,
        0.0,
        0.0,
        1.0,
        0.0,
        0.0,
        0.0,
        0.0,
        4.939622402191162,
        -0.19097557663917542,
        1.0
      ],
      "name": "NurbsPath.004_9"
    },
    {
      "mesh": 4,
      "name": "Object_12"
    },
    {
      "children": [
        14
      ],
      "matrix": [
        0.0,
        0.0,
        -0.12626589834690094,
        0.0,
        0.0,
        1.0,
        0.0,
        0.0,
        1.0,
        0.0,
        0.0,
        0.0,
        0.0,
        6.072174072265625,
        -0.19097557663917542,
        1.0
      ],
      "name": "NurbsPath.005_10"
    },
    {
      "mesh": 5,
      "name": "Object_14"
    }
  ],
  "scene": 0,
  "scenes": [
    {
      "name": "Sketchfab_Scene",
      "nodes": [
        0
      ]
    }
  ]
}
