{
  "accessors": [
    {
      "bufferView": 1,
      "componentType": 5126,
      "count": 65532,
      "max": [
        0.611696720123291,
        1.5525707006454468,
        1.1175638437271118
      ],
      "min": [
        -0.45826461911201477,
        0.15446148812770844,
        -0.34178176522254944
      ],
      "type": "VEC3"
    },
    {
      "bufferView": 1,
      "byteOffset": 786384,
      "componentType": 5126,
      "count": 65532,
      "max": [
        0.9999628067016602,
        0.9999817609786987,
        0.9999513626098633
      ],
      "min": [
        -0.9999894499778748,
        -0.9999798536300659,
        -0.9999675154685974
      ],
      "type": "VEC3"
    },
    {
      "bufferView": 2,
      "componentType": 5126,
      "count": 65532,
      "max": [
        1.0,
        1.0,
        1.0,
        1.0
      ],
      "min": [
        0.0,
        0.0,
        0.0,
        1.0
      ],
      "type": "VEC4"
    },
    {
      "bufferView": 0,
      "componentType": 5125,
      "count": 358878,
      "type": "SCALAR"
    },
    {
      "bufferView": 1,
      "byteOffset": 1572768,
      "componentType": 5126,
      "count": 24755,
      "max": [
        0.611091136932373,
        1.5508610010147095,
        1.1175638437271118
      ],
      "min": [
        -0.45803433656692505,
        0.15390031039714813,
        -0.34137576818466187
      ],
      "type": "VEC3"
    },
    {
      "bufferView": 1,
      "byteOffset": 1869828,
      "componentType": 5126,
      "count": 24755,
      "max": [
        0.9999628067016602,
        0.9999698400497437,
        0.9999334812164307
      ],
      "min": [
        -0.999988317489624,
        -0.9998258352279663,
        -0.9999717473983765
      ],
      "type": "VEC3"
    },
    {
      "bufferView": 2,
      "byteOffset": 1048512,
      "componentType": 5126,
      "count": 24755,
      "max": [
        1.0,
        1.0,
        1.0,
        1.0
      ],
      "min": [
        0.0,
        0.0,
        0.0,
        1.0
      ],
      "type": "VEC4"
    },
    {
      "bufferView": 0,
      "byteOffset": 1435512,
      "componentType": 5125,
      "count": 91104,
      "type": "SCALAR"
    }
  ],
  "asset": {
    "extras": {
      "author": "patokali (https://sketchfab.com/patokaliuno)",
      "license": "CC-BY-4.0 (http://creativecommons.org/licenses/by/4.0/)",
      "source": "https://sketchfab.com/3d-models/spider-man-pose-e25635400d6e4c50ad1f6bf1046ca3d2",
      "title": "Spider Man Pose"
    },
    "generator": "Sketchfab-15.37.0",
    "version": "2.0"
  },
  "bufferViews": [
    {
      "buffer": 0,
      "byteLength": 1799928,
      "name": "floatBufferViews",
      "target": 34963
    },
    {
      "buffer": 0,
      "byteLength": 2166888,
      "byteOffset": 1799928,
      "byteStride": 12,
      "name": "floatBufferViews",
      "target": 34962
    },
    {
      "buffer": 0,
      "byteLength": 1444592,
      "byteOffset": 3966816,
      "byteStride": 16,
      "name": "floatBufferViews",
      "target": 34962
    }
  ],
  "buffers": [
    {
      "byteLength": 5411408,
      "uri": "scene.bin"
    }
  ],
  "materials": [
    {
      "doubleSided": true,
      "name": "CL_Spider_Man_Modern_oPP1",
      "pbrMetallicRoughness": {
        "metallicFactor": 0.0,
        "roughnessFactor": 0.5
      }
    }
  ],
  "meshes": [
    {
      "name": "CL_Spider_Man_Modern_oPP1_CL_Spider_Man_Modern_oPP1_0",
      "primitives": [
        {
          "attributes": {
            "COLOR_0": 2,
            "NORMAL": 1,
            "POSITION": 0
          },
          "indices": 3,
          "material": 0,
          "mode": 4
        }
      ]
    },
    {
      "name": "CL_Spider_Man_Modern_oPP1_CL_Spider_Man_Modern_oPP1_0",
      "primitives": [
        {
          "attributes": {
            "COLOR_0": 6,
            "NORMAL": 5,
            "POSITION": 4
          },
          "indices": 7,
          "material": 0,
          "mode": 4
        }
      ]
    }
  ],
  "nodes": [
    {
      "children": [
        1
      ],
      "matrix": [
        1.0,
        0.0,
        0.0,
        0.0,
        0.0,
        2.220446049250313e-16,
        -1.0,
        0.0,
        0.0,
        1.0,
        2.220446049250313e-16,
        0.0,
        0.0,
        0.0,
        0.0,
        1.0
      ],
      "name": "Sketchfab_model"
    },
    {
      "children": [
        2
      ],
      "matrix": [
        0.009999999776482582,
        0.0,
        0.0,
        0.0,
        0.0,
        0.0,
        0.009999999776482582,
        0.0,
        0.0,
        -0.009999999776482582,
        0.0,
        0.0,
        0.0,
        0.0,
        0.0,
        1.0
      ],
      "name": "768b81547f3e44ab8e0ff06fb24a073e.fbx"
    },
    {
      "children": [
        3
      ],
      "name": "RootNode"
    },
    {
      "children": [
        4,
        5
      ],
      "name": "CL_Spider_Man_Modern_oPP1"
    },
    {
      "mesh": 0,
      "name": "CL_Spider_Man_Modern_oPP1_CL_Spider_Man_Modern_oPP1_0"
    },
    {
      "mesh": 1,
      "name": "CL_Spider_Man_Modern_oPP1_CL_Spider_Man_Modern_oPP1_0"
    }
  ],
  "scene": 0,
  "scenes": [
    {
      "name": "Sketchfab_Scene",
      "nodes": [
        0
      ]
    }
  ]
}
